Coordinates
version=1
nRows=17
nColumns=63
inDegrees=yes

Units are S.I. units (second, meters, Newtons, ...)
If the header above contains a line with 'inDegrees', this indicates whether rotational values are in degrees (yes) or radians (no).

endheader
time	pelvis_tilt	pelvis_list	pelvis_rotation	pelvis_tx	pelvis_ty	pelvis_tz	hip_flexion_r	hip_adduction_r	hip_rotation_r	knee_angle_r	knee_angle_r_beta	ankle_angle_r	subtalar_angle_r	mtp_angle_r	hip_flexion_l	hip_adduction_l	hip_rotation_l	knee_angle_l	knee_angle_l_beta	ankle_angle_l	subtalar_angle_l	mtp_angle_l	L5_S1_Flex_Ext	L5_S1_Lat_Bending	L5_S1_axial_rotation	L4_L5_Flex_Ext	L4_L5_Lat_Bending	L4_L5_axial_rotation	L3_L4_Flex_Ext	L3_L4_Lat_Bending	L3_L4_axial_rotation	L2_L3_Flex_Ext	L2_L3_Lat_Bending	L2_L3_axial_rotation	L1_L2_Flex_Ext	L1_L2_Lat_Bending	L1_L2_axial_rotation	L1_T12_Flex_Ext	L1_T12_Lat_Bending	L1_T12_axial_rotation	Abs_r3	Abs_r2	Abs_r1	Abs_t1	Abs_t2	neck_flexion	neck_bending	neck_rotation	arm_flex_r	arm_add_r	arm_rot_r	elbow_flex_r	pro_sup_r	wrist_flex_r	wrist_dev_r	arm_flex_l	arm_add_l	arm_rot_l	elbow_flex_l	pro_sup_l	wrist_flex_l	wrist_dev_l
0.983333	2.223706	-5.405699	85.384629	0.274943	1.038109	0.322070	3.092906	0.112057	-11.521108	11.405886	0.199070	25.850136	16.482917	0.000000	1.137711	-0.147727	1.315616	5.801448	0.101254	19.231803	-16.969354	0.000000	-0.102789	-0.103679	1.665865	-0.190890	-0.137893	1.769982	-0.168873	-0.252085	1.769982	-0.117478	-0.252085	1.457632	-0.095450	-0.211422	1.353515	-0.058734	-0.160598	1.249399	-0.734214	-1.172835	9.265041	0.000000	0.000000	20.121482	0.091318	-13.128338	3.617528	-14.664759	90.265838	16.127689	11.996576	-1.956371	-9.922249	12.336638	-9.891266	162.085784	10.138953	5.135659	-4.949053	-12.404880
1.000000	2.240726	-5.414484	85.423176	0.274954	1.038349	0.322096	3.088250	0.138260	-11.559662	11.360690	0.198281	25.738471	16.461101	0.000000	1.061005	-0.163561	1.396976	5.611201	0.097934	19.054123	-16.992283	0.000000	-0.100343	-0.108558	1.679067	-0.186346	-0.144383	1.784009	-0.164853	-0.263949	1.784009	-0.114682	-0.263949	1.469184	-0.093178	-0.221372	1.364242	-0.057336	-0.168157	1.259301	-0.716737	-1.228034	9.338470	0.000000	0.000000	20.053499	0.107589	-13.495856	3.617370	-14.554454	90.402145	16.026881	11.479714	-1.833397	-9.972949	12.526573	-10.079663	160.107441	10.370067	5.206564	-4.551063	-12.829510
1.016667	2.245339	-5.430388	85.467685	0.274994	1.038590	0.322108	3.091463	0.154180	-11.608285	11.318137	0.197539	25.642345	16.454685	0.000000	0.973557	-0.169318	1.483797	5.381220	0.093920	18.889968	-17.012675	0.000000	-0.096485	-0.114682	1.683280	-0.179182	-0.152527	1.788485	-0.158515	-0.278838	1.788485	-0.110273	-0.278838	1.472870	-0.089596	-0.233860	1.367665	-0.055132	-0.177643	1.262460	-0.689183	-1.297308	9.361898	0.000000	0.000000	20.039240	0.129438	-13.789960	3.645336	-14.424398	90.842912	15.882984	10.922308	-1.696960	-10.045236	12.705644	-10.293957	158.123325	10.644633	5.386235	-4.207732	-13.206282
1.033333	2.247341	-5.445386	85.498306	0.275052	1.038825	0.322111	3.095056	0.166570	-11.656206	11.279333	0.196861	25.570304	16.472813	0.000000	0.866319	-0.173080	1.528415	5.116366	0.089297	18.749191	-16.987350	0.000000	-0.092412	-0.119499	1.683542	-0.171618	-0.158933	1.788763	-0.151823	-0.290549	1.788763	-0.105617	-0.290549	1.473099	-0.085813	-0.243682	1.367878	-0.052804	-0.185104	1.262656	-0.660087	-1.351794	9.363355	0.000000	0.000000	20.085345	0.127121	-13.972883	3.617443	-14.347898	90.682911	15.835877	10.974261	-1.656652	-10.046019	12.914141	-10.478293	156.463587	10.952185	5.319320	-3.898390	-13.602569
1.050000	2.243324	-5.458160	85.530917	0.275102	1.039041	0.322101	3.096405	0.171433	-11.703442	11.244471	0.196253	25.520252	16.490570	0.000000	0.746316	-0.169691	1.575586	4.830163	0.084302	18.621308	-16.959989	0.000000	-0.088201	-0.123335	1.676913	-0.163798	-0.164036	1.781720	-0.144906	-0.299878	1.781720	-0.100805	-0.299878	1.467299	-0.081904	-0.251506	1.362492	-0.050398	-0.191047	1.257685	-0.630012	-1.395195	9.326487	0.000000	0.000000	20.185885	0.099210	-14.053273	3.587060	-14.298569	90.437564	15.816094	11.211174	-1.640222	-10.052890	13.123200	-10.712246	154.573249	11.369649	5.600472	-3.692922	-13.883491
1.066667	2.236029	-5.467959	85.563679	0.275132	1.039233	0.322088	3.095383	0.170419	-11.747126	11.215354	0.195745	25.487223	16.504397	0.000000	0.616491	-0.161684	1.631804	4.529475	0.079054	18.511162	-16.932736	0.000000	-0.083977	-0.125536	1.666387	-0.155954	-0.166963	1.770536	-0.137966	-0.305229	1.770536	-0.095977	-0.305229	1.458088	-0.077981	-0.255994	1.353939	-0.047985	-0.194456	1.249790	-0.599840	-1.420091	9.267943	0.000000	0.000000	20.328496	0.045698	-14.030127	3.547434	-14.284893	90.055977	15.837472	11.655506	-1.654189	-10.073958	13.331322	-10.986892	152.482988	11.894249	6.251850	-3.627527	-14.048389
1.083333	2.221070	-5.474394	85.581583	0.275166	1.039398	0.322088	3.094013	0.159197	-11.776518	11.192403	0.195344	25.465248	16.521744	0.000000	0.482770	-0.145091	1.663413	4.227335	0.073781	18.439495	-16.880072	0.000000	-0.080125	-0.127065	1.658790	-0.148801	-0.168996	1.762464	-0.131638	-0.308945	1.762464	-0.091575	-0.308945	1.451441	-0.074404	-0.259110	1.347767	-0.045784	-0.196823	1.244093	-0.572327	-1.437381	9.225692	0.000000	0.000000	20.497898	-0.038799	-13.946120	3.504772	-14.297004	89.636930	15.885791	12.172572	-1.682933	-10.134513	13.532501	-11.292068	150.327852	12.495828	7.279569	-3.715559	-14.092756
1.100000	2.201501	-5.475297	85.590641	0.275199	1.039534	0.322109	3.089615	0.143509	-11.764606	11.175759	0.195054	25.446554	16.500242	0.000000	0.347370	-0.122641	1.703629	3.932130	0.068629	18.406952	-16.836639	0.000000	-0.077455	-0.128024	1.654734	-0.143841	-0.170272	1.758155	-0.127250	-0.311277	1.758155	-0.088523	-0.311277	1.447892	-0.071924	-0.261066	1.344471	-0.044258	-0.198309	1.241050	-0.553250	-1.448232	9.203134	0.000000	0.000000	20.689960	-0.136020	-13.817235	3.448665	-14.334353	89.087791	15.970320	12.836329	-1.759866	-10.229052	13.720613	-11.619979	148.037081	13.171879	8.706902	-3.985571	-14.043351
1.116667	2.170590	-5.475142	85.598202	0.275231	1.039631	0.322161	3.087788	0.111676	-11.772182	11.172381	0.194995	25.435366	16.505785	0.000000	0.222543	-0.089621	1.725485	3.655590	0.063802	18.425367	-16.751860	0.000000	-0.075487	-0.129726	1.654260	-0.140187	-0.172536	1.757651	-0.124017	-0.315416	1.757651	-0.086274	-0.315416	1.447477	-0.070097	-0.264537	1.344086	-0.043133	-0.200945	1.240695	-0.539196	-1.467486	9.200495	0.000000	0.000000	20.896640	-0.246681	-13.675665	3.412295	-14.370880	88.734826	16.042585	13.388247	-1.842636	-10.346388	13.887286	-11.953803	145.807108	13.859111	10.424561	-4.398307	-13.934522
1.133333	2.138882	-5.469413	85.597550	0.275265	1.039682	0.322207	3.075129	0.075592	-11.783247	11.173182	0.195009	25.416032	16.533166	0.000000	0.098685	-0.054848	1.732128	3.396396	0.059278	18.489963	-16.642161	0.000000	-0.074176	-0.130849	1.655913	-0.137753	-0.174029	1.759407	-0.121864	-0.318147	1.759407	-0.084776	-0.318147	1.448924	-0.068880	-0.266828	1.345429	-0.042384	-0.202685	1.241935	-0.529833	-1.480193	9.209690	0.000000	0.000000	21.109288	-0.339667	-13.479656	3.379032	-14.419023	88.488053	16.123608	13.880088	-1.951369	-10.508364	14.015156	-12.286915	143.516138	14.547585	12.407965	-4.968044	-13.785396
1.150000	2.085485	-5.461456	85.588103	0.275341	1.039660	0.322251	3.062313	0.015760	-11.785033	11.194504	0.195381	25.394855	16.555235	0.000000	-0.017412	0.001631	1.749458	3.158420	0.055125	18.563812	-16.548632	0.000000	-0.073081	-0.135076	1.659350	-0.135718	-0.179651	1.763060	-0.120064	-0.328424	1.763060	-0.083524	-0.328424	1.451931	-0.067863	-0.275447	1.348222	-0.041758	-0.209233	1.244513	-0.522009	-1.528005	9.228808	0.000000	0.000000	21.328174	-0.419529	-13.289049	3.352334	-14.456722	88.321293	16.210933	14.329364	-2.101285	-10.636485	14.100575	-12.768169	139.761415	15.441583	15.860688	-5.823577	-13.486520
1.166667	2.025982	-5.452920	85.566681	0.275425	1.039573	0.322276	3.048879	-0.056386	-11.799314	11.236016	0.196105	25.363469	16.601051	0.000000	-0.124926	0.065733	1.772348	2.946183	0.051421	18.626318	-16.479504	0.000000	-0.071558	-0.140222	1.664826	-0.132890	-0.186495	1.768878	-0.117562	-0.340936	1.768878	-0.081783	-0.340936	1.456723	-0.066448	-0.285941	1.352671	-0.040888	-0.217204	1.248620	-0.511130	-1.586219	9.259265	0.000000	0.000000	21.537043	-0.517101	-13.141974	3.326637	-14.491545	88.213530	16.295986	14.759034	-2.262034	-10.735935	14.163928	-13.153375	136.789888	16.157434	18.694993	-6.650837	-13.282584
1.183333	1.948633	-5.443435	85.533772	0.275552	1.039412	0.322290	3.035689	-0.148776	-11.813306	11.294216	0.197121	25.334426	16.647610	0.000000	-0.216815	0.147030	1.789096	2.772858	0.048396	18.650684	-16.438531	0.000000	-0.069674	-0.148778	1.670778	-0.129392	-0.197875	1.775202	-0.114468	-0.361739	1.775202	-0.079631	-0.361739	1.461931	-0.064699	-0.303388	1.357507	-0.039812	-0.230457	1.253084	-0.497676	-1.683005	9.292368	0.000000	0.000000	21.735737	-0.628985	-13.085732	3.296861	-14.515733	87.979827	16.398424	15.319991	-2.436415	-10.772675	14.198778	-13.458765	134.542456	16.675714	20.878871	-7.409850	-13.162326
1.200000	1.863480	-5.426964	85.497299	0.275703	1.039170	0.322264	3.008332	-0.250977	-11.817784	11.353339	0.198153	25.322401	16.704394	0.000000	-0.303948	0.238153	1.840278	2.632455	0.045945	18.617702	-16.482532	0.000000	-0.067288	-0.159821	1.674563	-0.124960	-0.212562	1.779223	-0.110547	-0.388588	1.779223	-0.076903	-0.388588	1.465242	-0.062484	-0.325907	1.360582	-0.038448	-0.247562	1.255922	-0.480631	-1.807925	9.313416	0.000000	0.000000	21.901891	-0.719253	-13.106803	3.269697	-14.542296	87.578983	16.552467	16.003483	-2.631198	-10.737625	14.193398	-13.685327	132.949368	16.985009	22.484659	-8.095145	-13.119271
1.216667	1.755754	-5.412503	85.476786	0.275913	1.038841	0.322234	2.982424	-0.374050	-11.819949	11.418797	0.199296	25.348845	16.756611	0.000000	-0.363337	0.348586	1.927087	2.542265	0.044371	18.529545	-16.593465	0.000000	-0.063977	-0.176801	1.672356	-0.118811	-0.235145	1.776878	-0.105107	-0.429873	1.776878	-0.073119	-0.429873	1.463312	-0.059409	-0.360532	1.358789	-0.036556	-0.273864	1.254267	-0.456979	-2.000005	9.301143	0.000000	0.000000	22.011564	-0.816021	-13.310707	3.294711	-14.523440	87.337719	16.687255	16.560709	-2.757923	-10.668891	14.156792	-13.853851	132.038442	17.085350	23.429350	-8.659053	-13.150228
1.233333	1.620197	-5.401996	85.465888	0.276201	1.038419	0.322204	2.962290	-0.517160	-11.767498	11.484346	0.200440	25.427622	16.763579	0.000000	-0.393301	0.481828	2.009255	2.497479	0.043589	18.417817	-16.723207	0.000000	-0.059480	-0.200773	1.663465	-0.110460	-0.267028	1.767431	-0.097719	-0.488160	1.767431	-0.067979	-0.488160	1.455532	-0.055233	-0.409416	1.351565	-0.033987	-0.310997	1.247598	-0.424857	-2.271185	9.251691	0.000000	0.000000	22.050344	-0.907231	-13.705110	3.366557	-14.460143	87.061522	16.823708	17.185686	-2.828666	-10.553593	14.082972	-14.009423	131.345091	17.043731	24.018589	-9.124436	-13.225028
1.250000	1.462351	-5.391868	85.475578	0.276567	1.037927	0.322173	2.939973	-0.677321	-11.723077	11.538230	0.201380	25.563096	16.802421	0.000000	-0.393391	0.631321	2.100294	2.504083	0.043704	18.308849	-16.881681	0.000000	-0.055105	-0.231826	1.648582	-0.102336	-0.308328	1.751619	-0.090532	-0.563661	1.751619	-0.062980	-0.563661	1.442510	-0.051171	-0.472739	1.339473	-0.031487	-0.359098	1.236437	-0.393610	-2.622460	9.168920	0.000000	0.000000	21.992276	-0.992872	-14.341736	3.484353	-14.337647	86.723254	16.935210	17.870710	-2.816145	-10.380879	13.977450	-14.092146	131.574227	16.750748	23.791843	-9.399912	-13.355178
